<mxfile host="app.diagrams.net" modified="2022-12-27T10:00:19.325Z" agent="5.0 (Macintosh; Intel Mac OS X 10_15_7) AppleWebKit/537.36 (KHTML, like Gecko) Chrome/97.0.4692.71 Safari/537.36" version="20.7.4" etag="44Pv5gKMi-975-w08Vow" type="github">
  <diagram id="ALh3uHtMyfGseiwFORve" name="第 1 页">
    <mxGraphModel dx="1434" dy="701" grid="0" gridSize="10" guides="1" tooltips="1" connect="1" arrows="1" fold="1" page="1" pageScale="1" pageWidth="1169" pageHeight="827" math="0" shadow="0">
      <root>
        <mxCell id="0" />
        <mxCell id="1" parent="0" />
        <mxCell id="gsbZzFZp-f12OioFGxYw-9" style="edgeStyle=orthogonalEdgeStyle;rounded=0;orthogonalLoop=1;jettySize=auto;html=1;exitX=0.5;exitY=1;exitDx=0;exitDy=0;entryX=0.5;entryY=1;entryDx=0;entryDy=0;" edge="1" parent="1" source="gsbZzFZp-f12OioFGxYw-8" target="gsbZzFZp-f12OioFGxYw-46">
          <mxGeometry relative="1" as="geometry">
            <mxPoint x="502" y="227.5" as="targetPoint" />
          </mxGeometry>
        </mxCell>
        <mxCell id="gsbZzFZp-f12OioFGxYw-13" style="edgeStyle=orthogonalEdgeStyle;rounded=0;orthogonalLoop=1;jettySize=auto;html=1;exitX=0.5;exitY=1;exitDx=0;exitDy=0;entryX=0;entryY=0.5;entryDx=0;entryDy=0;" edge="1" parent="1" source="gsbZzFZp-f12OioFGxYw-8" target="gsbZzFZp-f12OioFGxYw-12">
          <mxGeometry relative="1" as="geometry" />
        </mxCell>
        <mxCell id="gsbZzFZp-f12OioFGxYw-8" value="" style="rounded=0;whiteSpace=wrap;html=1;" vertex="1" parent="1">
          <mxGeometry x="133" y="90" width="126" height="68" as="geometry" />
        </mxCell>
        <mxCell id="gsbZzFZp-f12OioFGxYw-1" value="" style="shape=collate;whiteSpace=wrap;html=1;" vertex="1" parent="1">
          <mxGeometry x="196" y="104" width="40" height="40" as="geometry" />
        </mxCell>
        <mxCell id="gsbZzFZp-f12OioFGxYw-2" value="定时任务" style="text;html=1;align=center;verticalAlign=middle;resizable=0;points=[];autosize=1;strokeColor=none;fillColor=none;" vertex="1" parent="1">
          <mxGeometry x="163" y="64" width="66" height="26" as="geometry" />
        </mxCell>
        <mxCell id="gsbZzFZp-f12OioFGxYw-4" style="edgeStyle=orthogonalEdgeStyle;rounded=0;orthogonalLoop=1;jettySize=auto;html=1;exitX=0;exitY=0.5;exitDx=0;exitDy=0;exitPerimeter=0;entryX=1;entryY=0.5;entryDx=0;entryDy=0;" edge="1" parent="1" target="gsbZzFZp-f12OioFGxYw-8">
          <mxGeometry relative="1" as="geometry">
            <mxPoint x="331" y="157" as="targetPoint" />
            <mxPoint x="449" y="124" as="sourcePoint" />
          </mxGeometry>
        </mxCell>
        <mxCell id="gsbZzFZp-f12OioFGxYw-5" value="pull" style="edgeLabel;html=1;align=center;verticalAlign=middle;resizable=0;points=[];" vertex="1" connectable="0" parent="gsbZzFZp-f12OioFGxYw-4">
          <mxGeometry x="0.0865" relative="1" as="geometry">
            <mxPoint as="offset" />
          </mxGeometry>
        </mxCell>
        <mxCell id="gsbZzFZp-f12OioFGxYw-15" style="edgeStyle=orthogonalEdgeStyle;rounded=0;orthogonalLoop=1;jettySize=auto;html=1;exitX=0.5;exitY=1;exitDx=0;exitDy=0;entryX=0.5;entryY=0;entryDx=0;entryDy=0;" edge="1" parent="1" target="gsbZzFZp-f12OioFGxYw-12">
          <mxGeometry relative="1" as="geometry">
            <mxPoint x="619" y="248" as="sourcePoint" />
          </mxGeometry>
        </mxCell>
        <mxCell id="gsbZzFZp-f12OioFGxYw-20" style="edgeStyle=orthogonalEdgeStyle;rounded=0;orthogonalLoop=1;jettySize=auto;html=1;exitX=0.5;exitY=1;exitDx=0;exitDy=0;entryX=0.25;entryY=0;entryDx=0;entryDy=0;fontSize=11;" edge="1" parent="1" target="gsbZzFZp-f12OioFGxYw-12">
          <mxGeometry relative="1" as="geometry">
            <mxPoint x="619" y="248" as="sourcePoint" />
          </mxGeometry>
        </mxCell>
        <mxCell id="gsbZzFZp-f12OioFGxYw-21" style="edgeStyle=orthogonalEdgeStyle;rounded=0;orthogonalLoop=1;jettySize=auto;html=1;exitX=0.5;exitY=1;exitDx=0;exitDy=0;entryX=0.75;entryY=0;entryDx=0;entryDy=0;fontSize=11;" edge="1" parent="1" target="gsbZzFZp-f12OioFGxYw-12">
          <mxGeometry relative="1" as="geometry">
            <mxPoint x="619" y="248" as="sourcePoint" />
          </mxGeometry>
        </mxCell>
        <mxCell id="gsbZzFZp-f12OioFGxYw-22" value="&lt;span style=&quot;font-family: &amp;quot;PingFang SC&amp;quot;; text-align: start;&quot;&gt;&lt;font style=&quot;font-size: 11px;&quot;&gt;concurrent threads&lt;/font&gt;&lt;/span&gt;" style="edgeLabel;html=1;align=center;verticalAlign=middle;resizable=0;points=[];fontSize=11;" vertex="1" connectable="0" parent="gsbZzFZp-f12OioFGxYw-21">
          <mxGeometry x="-0.4054" y="-1" relative="1" as="geometry">
            <mxPoint y="-12" as="offset" />
          </mxGeometry>
        </mxCell>
        <mxCell id="gsbZzFZp-f12OioFGxYw-7" value="1 Hour" style="ellipse;shape=umlControl;whiteSpace=wrap;html=1;" vertex="1" parent="1">
          <mxGeometry x="150" y="95" width="43" height="52" as="geometry" />
        </mxCell>
        <mxCell id="gsbZzFZp-f12OioFGxYw-11" value="已开始未结束但在下一次定时任务前结束的讲次&lt;br&gt;&lt;br&gt;结束前十分钟执行统计" style="text;html=1;align=center;verticalAlign=middle;resizable=0;points=[];autosize=1;strokeColor=none;fillColor=none;" vertex="1" parent="1">
          <mxGeometry x="211" y="200" width="270" height="55" as="geometry" />
        </mxCell>
        <mxCell id="gsbZzFZp-f12OioFGxYw-43" style="edgeStyle=orthogonalEdgeStyle;rounded=0;orthogonalLoop=1;jettySize=auto;html=1;exitX=0.5;exitY=1;exitDx=0;exitDy=0;entryX=0.466;entryY=-0.025;entryDx=0;entryDy=0;entryPerimeter=0;fontSize=11;" edge="1" parent="1" source="gsbZzFZp-f12OioFGxYw-12" target="gsbZzFZp-f12OioFGxYw-38">
          <mxGeometry relative="1" as="geometry" />
        </mxCell>
        <mxCell id="gsbZzFZp-f12OioFGxYw-12" value="cal&amp;nbsp; 主程序" style="rounded=0;whiteSpace=wrap;html=1;" vertex="1" parent="1">
          <mxGeometry x="505" y="339" width="228" height="51" as="geometry" />
        </mxCell>
        <mxCell id="gsbZzFZp-f12OioFGxYw-14" value="同一课程下，最新结束的讲次&lt;br&gt;&lt;br&gt;但下一讲尚未开始的" style="text;html=1;align=center;verticalAlign=middle;resizable=0;points=[];autosize=1;strokeColor=none;fillColor=none;" vertex="1" parent="1">
          <mxGeometry x="259" y="337" width="174" height="55" as="geometry" />
        </mxCell>
        <mxCell id="gsbZzFZp-f12OioFGxYw-18" value="（精确开始统计时间）" style="text;html=1;align=center;verticalAlign=middle;resizable=0;points=[];autosize=1;strokeColor=none;fillColor=none;fontSize=11;" vertex="1" parent="1">
          <mxGeometry x="58" y="214.5" width="138" height="26" as="geometry" />
        </mxCell>
        <mxCell id="gsbZzFZp-f12OioFGxYw-19" value="（即是补偿又是更新周期）" style="text;html=1;align=center;verticalAlign=middle;resizable=0;points=[];autosize=1;strokeColor=none;fillColor=none;fontSize=11;" vertex="1" parent="1">
          <mxGeometry x="46" y="349" width="162" height="26" as="geometry" />
        </mxCell>
        <mxCell id="gsbZzFZp-f12OioFGxYw-26" style="edgeStyle=orthogonalEdgeStyle;rounded=0;orthogonalLoop=1;jettySize=auto;html=1;exitX=0;exitY=0.5;exitDx=0;exitDy=0;entryX=1;entryY=0.5;entryDx=0;entryDy=0;fontSize=11;" edge="1" parent="1" source="gsbZzFZp-f12OioFGxYw-23" target="gsbZzFZp-f12OioFGxYw-12">
          <mxGeometry relative="1" as="geometry">
            <Array as="points">
              <mxPoint x="803" y="280" />
              <mxPoint x="803" y="365" />
            </Array>
          </mxGeometry>
        </mxCell>
        <mxCell id="gsbZzFZp-f12OioFGxYw-30" value="注册学生列表" style="edgeLabel;html=1;align=center;verticalAlign=middle;resizable=0;points=[];fontSize=11;" vertex="1" connectable="0" parent="gsbZzFZp-f12OioFGxYw-26">
          <mxGeometry x="-0.6315" y="2" relative="1" as="geometry">
            <mxPoint x="-28" y="-2" as="offset" />
          </mxGeometry>
        </mxCell>
        <mxCell id="gsbZzFZp-f12OioFGxYw-23" value="业务系统" style="html=1;fontSize=11;" vertex="1" parent="1">
          <mxGeometry x="973" y="255" width="110" height="50" as="geometry" />
        </mxCell>
        <mxCell id="gsbZzFZp-f12OioFGxYw-27" style="edgeStyle=orthogonalEdgeStyle;rounded=0;orthogonalLoop=1;jettySize=auto;html=1;exitX=0;exitY=0.5;exitDx=0;exitDy=0;fontSize=11;" edge="1" parent="1" source="gsbZzFZp-f12OioFGxYw-24">
          <mxGeometry relative="1" as="geometry">
            <mxPoint x="732" y="365" as="targetPoint" />
          </mxGeometry>
        </mxCell>
        <mxCell id="gsbZzFZp-f12OioFGxYw-31" value="补全头像等info" style="edgeLabel;html=1;align=center;verticalAlign=middle;resizable=0;points=[];fontSize=11;" vertex="1" connectable="0" parent="gsbZzFZp-f12OioFGxYw-27">
          <mxGeometry x="-0.4591" y="4" relative="1" as="geometry">
            <mxPoint x="-18" y="-4" as="offset" />
          </mxGeometry>
        </mxCell>
        <mxCell id="gsbZzFZp-f12OioFGxYw-24" value="UC服务" style="html=1;fontSize=11;" vertex="1" parent="1">
          <mxGeometry x="976.5" y="339.5" width="110" height="50" as="geometry" />
        </mxCell>
        <mxCell id="gsbZzFZp-f12OioFGxYw-28" style="edgeStyle=orthogonalEdgeStyle;rounded=0;orthogonalLoop=1;jettySize=auto;html=1;exitX=0;exitY=0.5;exitDx=0;exitDy=0;exitPerimeter=0;entryX=1;entryY=0.5;entryDx=0;entryDy=0;fontSize=11;" edge="1" parent="1" target="gsbZzFZp-f12OioFGxYw-12">
          <mxGeometry relative="1" as="geometry">
            <mxPoint x="985" y="443" as="sourcePoint" />
            <Array as="points">
              <mxPoint x="802" y="443" />
              <mxPoint x="802" y="365" />
            </Array>
          </mxGeometry>
        </mxCell>
        <mxCell id="gsbZzFZp-f12OioFGxYw-32" value="获取答题数据" style="edgeLabel;html=1;align=center;verticalAlign=middle;resizable=0;points=[];fontSize=11;" vertex="1" connectable="0" parent="gsbZzFZp-f12OioFGxYw-28">
          <mxGeometry x="-0.5643" y="-2" relative="1" as="geometry">
            <mxPoint x="-21" as="offset" />
          </mxGeometry>
        </mxCell>
        <mxCell id="gsbZzFZp-f12OioFGxYw-36" value="" style="group" vertex="1" connectable="0" parent="1">
          <mxGeometry x="446" y="103" width="131" height="41" as="geometry" />
        </mxCell>
        <mxCell id="gsbZzFZp-f12OioFGxYw-34" value="" style="shape=mxgraph.pid.apparatus_elements.support_ring;html=1;pointerEvents=1;align=center;verticalLabelPosition=bottom;verticalAlign=top;dashed=0;fontSize=11;" vertex="1" parent="gsbZzFZp-f12OioFGxYw-36">
          <mxGeometry width="131" height="39.42307692307692" as="geometry" />
        </mxCell>
        <mxCell id="gsbZzFZp-f12OioFGxYw-35" value="监课列表数据" style="text;html=1;align=center;verticalAlign=middle;resizable=0;points=[];autosize=1;strokeColor=none;fillColor=none;fontSize=11;" vertex="1" parent="gsbZzFZp-f12OioFGxYw-36">
          <mxGeometry x="11" y="6.71" width="90" height="26" as="geometry" />
        </mxCell>
        <mxCell id="gsbZzFZp-f12OioFGxYw-37" value="" style="group" vertex="1" connectable="0" parent="1">
          <mxGeometry x="557" y="445" width="132" height="41" as="geometry" />
        </mxCell>
        <mxCell id="gsbZzFZp-f12OioFGxYw-38" value="" style="shape=mxgraph.pid.apparatus_elements.support_ring;html=1;pointerEvents=1;align=center;verticalLabelPosition=bottom;verticalAlign=top;dashed=0;fontSize=11;" vertex="1" parent="gsbZzFZp-f12OioFGxYw-37">
          <mxGeometry width="132" height="39.42307692307692" as="geometry" />
        </mxCell>
        <mxCell id="gsbZzFZp-f12OioFGxYw-39" value="排行榜数据" style="text;html=1;align=center;verticalAlign=middle;resizable=0;points=[];autosize=1;strokeColor=none;fillColor=none;fontSize=11;" vertex="1" parent="gsbZzFZp-f12OioFGxYw-37">
          <mxGeometry x="17.12977099236641" y="6.71" width="78" height="26" as="geometry" />
        </mxCell>
        <mxCell id="gsbZzFZp-f12OioFGxYw-40" value="" style="group" vertex="1" connectable="0" parent="1">
          <mxGeometry x="973" y="424" width="131" height="41" as="geometry" />
        </mxCell>
        <mxCell id="gsbZzFZp-f12OioFGxYw-41" value="" style="shape=mxgraph.pid.apparatus_elements.support_ring;html=1;pointerEvents=1;align=center;verticalLabelPosition=bottom;verticalAlign=top;dashed=0;fontSize=11;" vertex="1" parent="gsbZzFZp-f12OioFGxYw-40">
          <mxGeometry width="131" height="39.42307692307692" as="geometry" />
        </mxCell>
        <mxCell id="gsbZzFZp-f12OioFGxYw-42" value="学生答题数据" style="text;html=1;align=center;verticalAlign=middle;resizable=0;points=[];autosize=1;strokeColor=none;fillColor=none;fontSize=11;" vertex="1" parent="gsbZzFZp-f12OioFGxYw-40">
          <mxGeometry x="11" y="6.71" width="90" height="26" as="geometry" />
        </mxCell>
        <mxCell id="gsbZzFZp-f12OioFGxYw-44" value="replace into" style="text;html=1;align=center;verticalAlign=middle;resizable=0;points=[];autosize=1;strokeColor=none;fillColor=none;fontSize=11;" vertex="1" parent="1">
          <mxGeometry x="569" y="402" width="80" height="26" as="geometry" />
        </mxCell>
        <mxCell id="gsbZzFZp-f12OioFGxYw-46" value="延时队列&amp;nbsp;&lt;span style=&quot;font-family: &amp;quot;PingFang SC&amp;quot;; text-align: start; background-color: rgb(255, 255, 255);&quot;&gt;advance 10 mins&lt;/span&gt;" style="shape=partialRectangle;whiteSpace=wrap;html=1;top=0;bottom=0;fillColor=none;fontSize=11;direction=south;" vertex="1" parent="1">
          <mxGeometry x="507.5" y="200" width="223" height="46" as="geometry" />
        </mxCell>
        <mxCell id="gsbZzFZp-f12OioFGxYw-53" style="edgeStyle=orthogonalEdgeStyle;rounded=0;orthogonalLoop=1;jettySize=auto;html=1;exitX=0;exitY=0.5;exitDx=0;exitDy=0;entryX=1;entryY=0.5;entryDx=0;entryDy=0;fontSize=11;" edge="1" parent="1" source="gsbZzFZp-f12OioFGxYw-48" target="gsbZzFZp-f12OioFGxYw-52">
          <mxGeometry relative="1" as="geometry" />
        </mxCell>
        <mxCell id="gsbZzFZp-f12OioFGxYw-54" value="VO" style="edgeLabel;html=1;align=center;verticalAlign=middle;resizable=0;points=[];fontSize=11;" vertex="1" connectable="0" parent="gsbZzFZp-f12OioFGxYw-53">
          <mxGeometry x="-0.0698" y="2" relative="1" as="geometry">
            <mxPoint as="offset" />
          </mxGeometry>
        </mxCell>
        <mxCell id="gsbZzFZp-f12OioFGxYw-48" value="查询接口" style="rounded=0;whiteSpace=wrap;html=1;fontSize=11;" vertex="1" parent="1">
          <mxGeometry x="273" y="443" width="120" height="51.5" as="geometry" />
        </mxCell>
        <mxCell id="gsbZzFZp-f12OioFGxYw-51" value="" style="endArrow=classic;html=1;rounded=0;fontSize=11;exitX=0;exitY=0.583;exitDx=0;exitDy=0;exitPerimeter=0;entryX=1;entryY=0.5;entryDx=0;entryDy=0;" edge="1" parent="1" source="gsbZzFZp-f12OioFGxYw-38" target="gsbZzFZp-f12OioFGxYw-48">
          <mxGeometry width="50" height="50" relative="1" as="geometry">
            <mxPoint x="469" y="472" as="sourcePoint" />
            <mxPoint x="519" y="422" as="targetPoint" />
          </mxGeometry>
        </mxCell>
        <mxCell id="gsbZzFZp-f12OioFGxYw-52" value="前端" style="rounded=0;whiteSpace=wrap;html=1;fontSize=11;" vertex="1" parent="1">
          <mxGeometry x="67" y="438.75" width="120" height="60" as="geometry" />
        </mxCell>
      </root>
    </mxGraphModel>
  </diagram>
</mxfile>
